<?xml version="1.0" encoding="UTF-8" standalone="no"?>
<svg width="512" height="512" viewBox="0 0 512 512" xmlns="http://www.w3.org/2000/svg">
  <defs>
    <linearGradient id="bgGradient" x1="0%" y1="0%" x2="100%" y2="100%">
      <stop offset="0%" style="stop-color:#FF6B6B;stop-opacity:1" />
      <stop offset="50%" style="stop-color:#FF8E53;stop-opacity:1" />
      <stop offset="100%" style="stop-color:#FFD166;stop-opacity:1" />
    </linearGradient>
    <filter id="shadow" x="-20%" y="-20%" width="140%" height="140%">
      <feDropShadow dx="0" dy="4" stdDeviation="10" flood-color="#00000044"/>
    </filter>
    <linearGradient id="textGradient" x1="0%" y1="0%" x2="0%" y2="100%">
      <stop offset="0%" style="stop-color:#FFFFFF;stop-opacity:1" />
      <stop offset="100%" style="stop-color:#F0F0F0;stop-opacity:0.9" />
    </linearGradient>
  </defs>
  
  <!-- Background with rounded corners -->
  <rect width="512" height="512" rx="100" fill="url(#bgGradient)" filter="url(#shadow)"/>
  
  <!-- Decorative elements -->
  <circle cx="120" cy="120" r="24" fill="#FFFFFF33"/>
  <circle cx="400" cy="380" r="32" fill="#FFFFFF33"/>
  <path d="M 50 300 Q 100 250 150 300 T 250 300" stroke="#FFFFFF22" stroke-width="8" fill="none"/>
  
  <!-- Stylized M letter with 3D effect -->
  <g transform="translate(100, 120) scale(0.9)">
    <path d="M 40 40 
             L 90 40 
             L 170 200 
             L 250 40 
             L 300 40 
             L 300 280 
             L 240 280 
             L 240 120 
             L 170 260 
             L 100 120 
             L 100 280 
             L 40 280 Z" 
          fill="url(#textGradient)" 
          filter="url(#shadow)"
          stroke="#FFFFFF55" 
          stroke-width="8"/>
  </g>
  
  <!-- Small dot accent -->
  <circle cx="256" cy="400" r="15" fill="#FFFFFF"/>
</svg> 